<svg width="60" height="35" viewBox="0 0 60 35" fill="none" xmlns="http://www.w3.org/2000/svg">
<path d="M2.69531 1.91418V32.9603H4.80469V26.1957C22.6523 28.1628 37.3359 28.1628 55.1953 26.1957V32.9603H57.3047V1.91418H55.1953V2.98474H52.5V5.12585H55.1953V7.26696H52.5V9.40807H55.1953V24.9713C37.2305 26.9719 22.7695 26.9719 4.80469 24.9713V7.26696H7.5V5.12585H4.80469V1.91418H2.69531ZM7.5 5.12585H11.25V2.98474H7.5V5.12585ZM11.25 5.12585V7.26696H15V5.12585H11.25ZM15 5.12585H18.75V2.98474H15V5.12585ZM18.75 5.12585V7.26696H22.5V5.12585H18.75ZM22.5 5.12585H26.25V2.98474H22.5V5.12585ZM26.25 5.12585V7.26696H30V5.12585H26.25ZM30 5.12585H33.75V2.98474H30V5.12585ZM33.75 5.12585V7.26696H37.5V5.12585H33.75ZM37.5 5.12585H41.25V2.98474H37.5V5.12585ZM41.25 5.12585V7.26696H45V5.12585H41.25ZM45 5.12585H48.75V2.98474H45V5.12585ZM48.75 5.12585V7.26696H52.5V5.12585H48.75ZM48.75 7.26696H45V9.40807H48.75V7.26696ZM41.25 7.26696H37.5V9.40807H41.25V7.26696ZM33.75 7.26696H30V9.40807H33.75V7.26696ZM26.25 7.26696H22.5V9.40807H26.25V7.26696ZM18.75 7.26696H15V9.40807H18.75V7.26696ZM11.25 7.26696H7.5V9.40807H11.25V7.26696Z" fill="white"/>
</svg>
