<svg width="60" height="36" viewBox="0 0 60 36" fill="none" xmlns="http://www.w3.org/2000/svg">
<path d="M19.972 4.57713C20.0239 4.42717 20.0225 4.27279 19.9679 4.12315C19.9133 3.9735 19.8067 3.83163 19.6543 3.70595C19.5019 3.58027 19.3069 3.47334 19.0808 3.39149C18.8547 3.30964 18.6021 3.25454 18.338 3.22946C18.0739 3.20438 17.8037 3.20983 17.5434 3.24549C17.2831 3.28114 17.0379 3.34627 16.8225 3.43702C16.6071 3.52777 16.4257 3.64229 16.2893 3.7738C16.1528 3.9053 16.0639 4.05111 16.028 4.20258L8.028 31.6088C7.97614 31.7587 7.97753 31.9131 8.0321 32.0628C8.08667 32.2124 8.19331 32.3543 8.34569 32.48C8.49807 32.6056 8.69309 32.7126 8.91919 32.7944C9.14529 32.8763 9.39787 32.9314 9.66196 32.9564C9.92605 32.9815 10.1963 32.9761 10.4566 32.9404C10.7169 32.9048 10.9621 32.8396 11.1775 32.7489C11.3929 32.6581 11.5743 32.5436 11.7107 32.4121C11.8472 32.2806 11.9361 32.1348 11.972 31.9833L14.652 22.8023C17.876 23.0718 21.36 23.1608 24.104 24.2594C25.8017 24.9559 27.7649 25.4123 29.832 25.5908C33.696 25.9243 37.152 24.7116 40.968 25.0564L46.124 25.4995C47.164 25.5908 48.244 25.1341 48.4 24.5403L51.936 10.9879L51.952 10.9788C52.0063 10.6804 51.8602 10.3815 51.5431 10.1423C51.226 9.9032 50.7616 9.74176 50.244 9.69067L45.088 9.24761C41.236 8.92102 37.772 10.0995 33.956 9.77289C32.2445 9.6245 30.6166 9.25161 29.2 8.6835C26.244 7.50275 22.724 7.30633 19.256 7.0277L19.976 4.57485L19.972 4.57713ZM17.612 12.6574L18.932 8.15364C21.328 8.34092 23.864 8.44826 26.084 8.99638L24.904 13.4841C22.624 12.952 20.048 12.8492 17.612 12.6574ZM14.984 21.6786L16.304 17.1703C18.784 17.3667 21.412 17.4672 23.736 18.0107L24.936 13.4979C27.568 14.1145 29.572 15.1719 32.508 15.4186L33.708 10.8965C36.66 11.1501 39.104 10.4923 41.94 10.3621L40.74 14.8522C37.9 14.9892 35.444 15.6744 32.5 15.4231L31.356 19.9406C28.412 19.6894 26.404 18.6274 23.76 18.013L22.56 22.5259C20.18 21.9801 17.508 21.8841 14.984 21.6786ZM31.36 19.9429C34.296 20.1941 36.764 19.5044 39.604 19.3696L40.74 14.8522C43.36 14.7151 46.04 15.1057 48.612 15.3295L47.492 19.8424C44.916 19.6209 42.228 19.228 39.608 19.3696L38.408 23.8825C35.572 23.9921 33.068 24.7047 30.16 24.4535L31.356 19.9406L31.36 19.9429Z" fill="white"/>
</svg>
