<svg width="61" height="61" viewBox="0 0 61 61" fill="none" xmlns="http://www.w3.org/2000/svg">
<path d="M36.685 12.4938C29.0548 10.6314 21.4448 15.1002 19.2275 22.515L14.0917 26.687C13.4528 27.1959 13.6916 28.3264 14.5416 28.5339L17.5775 29.2749L16.0955 35.3467C15.5471 37.5932 16.9087 39.8342 19.1553 40.3825L21.1792 40.8765L19.6972 46.9483L33.8646 50.4063L36.1815 40.9142C41.5314 39.8182 46.0111 35.7863 47.3943 30.1193C49.3012 22.307 44.5378 14.4106 36.685 12.4938ZM33.2748 35.2509L29.227 34.2629L29.721 32.239L33.7688 33.227L33.2748 35.2509ZM38.7361 26.9337C37.9749 27.7122 37.0236 28.2784 35.9763 28.5761L35.2748 31.4501L29.203 29.9681L29.9045 27.0941C27.4204 24.7078 27.3124 20.757 29.6938 18.2931C32.0751 15.8292 36.056 15.6857 38.5451 18.0518C41.0342 20.4178 41.1323 24.4091 38.7361 26.9337Z" fill="white"/>
</svg>
