<svg width="51" height="50" viewBox="0 0 51 50" fill="none" xmlns="http://www.w3.org/2000/svg">
<path d="M42.6875 8.59375H8.31253C7.27653 8.59375 6.28296 9.0053 5.5504 9.73786C4.81783 10.4704 4.40628 11.464 4.40628 12.5V43.75C4.40316 44.4939 4.61445 45.2229 5.01487 45.8499C5.41529 46.4768 5.98787 46.9751 6.6641 47.2852C7.18319 47.5282 7.74913 47.6548 8.3223 47.6562C9.23954 47.6539 10.1264 47.3274 10.8262 46.7344L10.8633 46.7031L16.9063 41.4062H42.6875C43.7235 41.4062 44.7171 40.9947 45.4497 40.2621C46.1822 39.5296 46.5938 38.536 46.5938 37.5V12.5C46.5938 11.464 46.1822 10.4704 45.4497 9.73786C44.7171 9.0053 43.7235 8.59375 42.6875 8.59375ZM41.9063 36.7188H16.6133C15.6937 36.7187 14.8036 37.0431 14.0996 37.6348L14.0625 37.666L9.09378 42.0195V13.2812H41.9063V36.7188Z" fill="white"/>
</svg>
