<svg width="37" height="37" viewBox="0 0 37 37" fill="none" xmlns="http://www.w3.org/2000/svg">
<g clip-path="url(#clip0_54_26)">
<path d="M12.7582 13.1223L7.66902 15.5411L10.9664 20.1103C11.0762 20.2599 11.1554 20.4298 11.1992 20.6102C11.2431 20.7905 11.2508 20.9778 11.2219 21.1611C11.1931 21.3445 11.1282 21.5203 11.0311 21.6785C10.9339 21.8367 10.8064 21.974 10.6559 22.0827C10.5054 22.1913 10.3349 22.2691 10.1542 22.3115C9.97347 22.3539 9.78616 22.3602 9.60303 22.3298C9.41991 22.2995 9.2446 22.2332 9.08722 22.1348C8.92984 22.0364 8.7935 21.9078 8.68606 21.7564L4.40158 15.8187C4.2809 15.6515 4.19846 15.4599 4.1601 15.2573C4.12174 15.0547 4.12841 14.8461 4.17962 14.6464C4.23083 14.4467 4.32534 14.2606 4.45645 14.1015C4.58756 13.9423 4.75206 13.814 4.9383 13.7255L11.5513 10.582C11.8877 10.4255 12.2723 10.4082 12.6213 10.534C12.9704 10.6598 13.2556 10.9184 13.4148 11.2535C13.574 11.5886 13.5943 11.9731 13.4713 12.3231C13.3483 12.6731 13.092 12.9604 12.7582 13.1223ZM32.1093 20.6924L27.8248 14.7547C27.7174 14.6033 27.5811 14.4747 27.4237 14.3763C27.2663 14.2779 27.091 14.2116 26.9079 14.1813C26.7248 14.151 26.5374 14.1572 26.3567 14.1996C26.176 14.242 26.0055 14.3198 25.855 14.4284C25.7045 14.5371 25.577 14.6744 25.4799 14.8326C25.3827 14.9908 25.3178 15.1666 25.289 15.35C25.2601 15.5333 25.2678 15.7206 25.3117 15.9009C25.3556 16.0813 25.4347 16.2512 25.5445 16.4008L28.8419 20.97L23.7527 23.3888C23.5845 23.4671 23.4333 23.578 23.3081 23.715C23.1829 23.852 23.086 24.0124 23.0231 24.1871C22.9601 24.3617 22.9324 24.547 22.9415 24.7324C22.9505 24.9178 22.9962 25.0996 23.0758 25.2673C23.1555 25.4349 23.2676 25.5851 23.4055 25.7093C23.5435 25.8334 23.7048 25.929 23.8799 25.9905C24.055 26.0521 24.2406 26.0783 24.4259 26.0678C24.6112 26.0572 24.7926 26.0101 24.9596 25.9291L31.5726 22.7856C31.7588 22.6971 31.9233 22.5688 32.0545 22.4096C32.1856 22.2505 32.2801 22.0645 32.3313 21.8647C32.3825 21.665 32.3892 21.4564 32.3508 21.2538C32.3125 21.0513 32.23 20.8596 32.1093 20.6924ZM25.243 8.03649C25.0906 7.93222 24.9191 7.85902 24.7383 7.82105C24.5575 7.78309 24.371 7.78111 24.1895 7.81522C24.008 7.84934 23.8349 7.91888 23.6803 8.01989C23.5256 8.12089 23.3924 8.25137 23.2882 8.40387L10.9005 26.5198C10.6903 26.8276 10.611 27.2064 10.6799 27.5727C10.7489 27.9391 10.9604 28.2631 11.2682 28.4735C11.403 28.5667 11.5534 28.6352 11.7123 28.6757C11.992 28.7474 12.287 28.7314 12.5572 28.6297C12.8274 28.528 13.0598 28.3456 13.2227 28.1072L25.6104 9.99134C25.7147 9.83887 25.7879 9.66735 25.8259 9.48658C25.8638 9.30582 25.8658 9.11934 25.8317 8.93781C25.7976 8.75628 25.728 8.58324 25.627 8.42859C25.526 8.27394 25.3955 8.1407 25.243 8.03649Z" fill="white"/>
</g>
<defs>
<clipPath id="clip0_54_26">
<rect width="30" height="30" fill="white" transform="translate(7.45117) rotate(14.3813)"/>
</clipPath>
</defs>
</svg>
