<svg width="230" height="30" viewBox="0 0 230 30" fill="none" xmlns="http://www.w3.org/2000/svg">
<path d="M216.285 2.50129C217.197 2.49779 218.109 2.50696 219.021 2.52879L219.264 2.53754C219.544 2.54754 219.82 2.56004 220.154 2.57504C221.484 2.63754 222.391 2.84754 223.187 3.15629C224.012 3.47379 224.707 3.90379 225.402 4.59879C226.038 5.2233 226.53 5.97873 226.844 6.81254C227.152 7.60879 227.362 8.51754 227.425 9.84754C227.44 10.18 227.452 10.4575 227.462 10.7375L227.47 10.98C227.492 11.8915 227.502 12.8033 227.499 13.715L227.5 14.6475V16.285C227.503 17.1972 227.493 18.1094 227.471 19.0213L227.464 19.2638C227.454 19.5438 227.441 19.82 227.426 20.1538C227.364 21.4838 227.151 22.3913 226.844 23.1875C226.531 24.0222 226.039 24.7783 225.402 25.4025C224.777 26.0379 224.022 26.5297 223.187 26.8438C222.391 27.1525 221.484 27.3625 220.154 27.425C219.82 27.44 219.544 27.4525 219.264 27.4625L219.021 27.47C218.109 27.4923 217.197 27.5019 216.285 27.4988L215.352 27.5H213.716C212.804 27.5031 211.892 27.4935 210.98 27.4713L210.737 27.4638C210.441 27.453 210.144 27.4405 209.847 27.4263C208.517 27.3638 207.61 27.1513 206.812 26.8438C205.978 26.5305 205.223 26.0386 204.599 25.4025C203.963 24.7779 203.47 24.022 203.156 23.1875C202.847 22.3913 202.637 21.4838 202.575 20.1538C202.561 19.8572 202.549 19.5605 202.537 19.2638L202.531 19.0213C202.508 18.1094 202.498 17.1972 202.5 16.285V13.715C202.497 12.8033 202.506 11.8915 202.527 10.98L202.536 10.7375C202.546 10.4575 202.559 10.18 202.574 9.84754C202.636 8.51629 202.846 7.61004 203.155 6.81254C203.469 5.97832 203.962 5.2231 204.6 4.60004C205.224 3.96348 205.979 3.47076 206.812 3.15629C207.61 2.84754 208.516 2.63754 209.847 2.57504L210.737 2.53754L210.98 2.53129C211.891 2.50826 212.803 2.49784 213.715 2.50004L216.285 2.50129ZM215 8.75129C214.172 8.73958 213.35 8.89257 212.581 9.20138C211.813 9.51018 211.113 9.96864 210.524 10.5501C209.934 11.1316 209.465 11.8245 209.146 12.5885C208.826 13.3525 208.662 14.1725 208.662 15.0007C208.662 15.8289 208.826 16.6488 209.146 17.4128C209.465 18.1769 209.934 18.8698 210.524 19.4512C211.113 20.0327 211.813 20.4912 212.581 20.8C213.35 21.1088 214.172 21.2618 215 21.25C216.658 21.25 218.247 20.5916 219.419 19.4195C220.592 18.2474 221.25 16.6576 221.25 15C221.25 13.3424 220.592 11.7527 219.419 10.5806C218.247 9.40852 216.658 8.75129 215 8.75129ZM215 11.2513C215.498 11.2421 215.993 11.3323 216.456 11.5166C216.919 11.7008 217.34 11.9755 217.696 12.3245C218.052 12.6735 218.334 13.0898 218.527 13.5492C218.72 14.0086 218.819 14.5018 218.819 15C218.819 15.4983 218.72 15.9915 218.527 16.4509C218.335 16.9104 218.052 17.3268 217.697 17.676C217.341 18.0251 216.92 18.2999 216.457 18.4843C215.994 18.6687 215.499 18.7591 215.001 18.75C214.007 18.75 213.053 18.355 212.35 17.6517C211.646 16.9484 211.251 15.9946 211.251 15C211.251 14.0055 211.646 13.0517 212.35 12.3484C213.053 11.6451 214.007 11.25 215.001 11.25L215 11.2513ZM221.562 6.87629C221.159 6.89243 220.778 7.06398 220.498 7.35501C220.219 7.64603 220.062 8.03396 220.062 8.43754C220.062 8.84113 220.219 9.22905 220.498 9.52008C220.778 9.81111 221.159 9.98265 221.562 9.99879C221.977 9.99879 222.374 9.83417 222.667 9.54115C222.96 9.24812 223.125 8.85069 223.125 8.43629C223.125 8.02189 222.96 7.62447 222.667 7.33144C222.374 7.03841 221.977 6.87379 221.562 6.87379V6.87629Z" fill="white"/>
<path d="M173.75 3.75C174.413 3.75 175.049 4.01339 175.518 4.48223C175.987 4.95107 176.25 5.58696 176.25 6.25V23.75C176.25 24.413 175.987 25.0489 175.518 25.5178C175.049 25.9866 174.413 26.25 173.75 26.25H156.25C155.587 26.25 154.951 25.9866 154.482 25.5178C154.013 25.0489 153.75 24.413 153.75 23.75V6.25C153.75 5.58696 154.013 4.95107 154.482 4.48223C154.951 4.01339 155.587 3.75 156.25 3.75H173.75ZM173.125 23.125V16.5C173.125 15.4192 172.696 14.3828 171.931 13.6185C171.167 12.8543 170.131 12.425 169.05 12.425C167.987 12.425 166.75 13.075 166.15 14.05V12.6625H162.663V23.125H166.15V16.9625C166.15 16 166.925 15.2125 167.888 15.2125C168.352 15.2125 168.797 15.3969 169.125 15.7251C169.453 16.0533 169.637 16.4984 169.637 16.9625V23.125H173.125ZM158.6 10.7C159.157 10.7 159.691 10.4788 160.085 10.0849C160.479 9.6911 160.7 9.15695 160.7 8.6C160.7 7.4375 159.763 6.4875 158.6 6.4875C158.04 6.4875 157.502 6.71007 157.106 7.10624C156.71 7.50241 156.488 8.03973 156.488 8.6C156.488 9.7625 157.438 10.7 158.6 10.7ZM160.338 23.125V12.6625H156.875V23.125H160.338Z" fill="white"/>
<path d="M112.5 18.75L118.987 15L112.5 11.25V18.75ZM126.95 8.9625C127.112 9.55 127.225 10.3375 127.3 11.3375C127.388 12.3375 127.425 13.2 127.425 13.95L127.5 15C127.5 17.7375 127.3 19.75 126.95 21.0375C126.637 22.1625 125.913 22.8875 124.788 23.2C124.2 23.3625 123.125 23.475 121.475 23.55C119.85 23.6375 118.363 23.675 116.988 23.675L115 23.75C109.762 23.75 106.5 23.55 105.213 23.2C104.088 22.8875 103.363 22.1625 103.05 21.0375C102.888 20.45 102.775 19.6625 102.7 18.6625C102.613 17.6625 102.575 16.8 102.575 16.05L102.5 15C102.5 12.2625 102.7 10.25 103.05 8.9625C103.363 7.8375 104.088 7.1125 105.213 6.8C105.8 6.6375 106.875 6.525 108.525 6.45C110.15 6.3625 111.637 6.325 113.012 6.325L115 6.25C120.237 6.25 123.5 6.45 124.788 6.8C125.913 7.1125 126.637 7.8375 126.95 8.9625Z" fill="white"/>
<path d="M78.075 7.5C77.1125 7.9375 76.075 8.225 75 8.3625C76.1 7.7 76.95 6.65 77.35 5.3875C76.3125 6.0125 75.1625 6.45 73.95 6.7C72.9625 5.625 71.575 5 70 5C67.0625 5 64.6625 7.4 64.6625 10.3625C64.6625 10.7875 64.7125 11.2 64.8 11.5875C60.35 11.3625 56.3875 9.225 53.75 5.9875C53.2875 6.775 53.025 7.7 53.025 8.675C53.025 10.5375 53.9625 12.1875 55.4125 13.125C54.525 13.125 53.7 12.875 52.975 12.5V12.5375C52.975 15.1375 54.825 17.3125 57.275 17.8C56.4885 18.0153 55.6627 18.0452 54.8625 17.8875C55.2021 18.9531 55.867 19.8855 56.7638 20.5537C57.6607 21.2218 58.7444 21.5921 59.8625 21.6125C57.9671 23.113 55.6175 23.9241 53.2 23.9125C52.775 23.9125 52.35 23.8875 51.925 23.8375C54.3 25.3625 57.125 26.25 60.15 26.25C70 26.25 75.4125 18.075 75.4125 10.9875C75.4125 10.75 75.4125 10.525 75.4 10.2875C76.45 9.5375 77.35 8.5875 78.075 7.5Z" fill="white"/>
<path d="M27.5 15C27.5 8.1 21.9 2.5 15 2.5C8.1 2.5 2.5 8.1 2.5 15C2.5 21.05 6.8 26.0875 12.5 27.25V18.75H10V15H12.5V11.875C12.5 9.4625 14.4625 7.5 16.875 7.5H20V11.25H17.5C16.8125 11.25 16.25 11.8125 16.25 12.5V15H20V18.75H16.25V27.4375C22.5625 26.8125 27.5 21.4875 27.5 15Z" fill="white"/>
</svg>
