<svg width="30" height="18" viewBox="0 0 30 18" fill="none" xmlns="http://www.w3.org/2000/svg">
<path fill-rule="evenodd" clip-rule="evenodd" d="M6.875 2.10296C7.16227 2.10296 7.44672 2.13527 7.71212 2.19804C7.97752 2.2608 8.21867 2.3528 8.42179 2.46878C8.62492 2.58476 8.78605 2.72245 8.89599 2.87398C9.00592 3.02551 9.0625 3.18793 9.0625 3.35194C9.0625 3.51596 9.00592 3.67838 8.89599 3.82991C8.78605 3.98144 8.62492 4.11913 8.42179 4.23511C8.21867 4.35109 7.97752 4.44309 7.71212 4.50585C7.44672 4.56862 7.16227 4.60093 6.875 4.60093C6.29484 4.60093 5.73844 4.46934 5.32821 4.23511C4.91797 4.00088 4.6875 3.68319 4.6875 3.35194C4.6875 3.02069 4.91797 2.70301 5.32821 2.46878C5.73844 2.23455 6.29484 2.10296 6.875 2.10296ZM10.9375 3.35194C10.9375 2.73677 10.5095 2.14678 9.74762 1.71179C8.98576 1.27679 7.95244 1.03241 6.875 1.03241C5.79756 1.03241 4.76424 1.27679 4.00238 1.71179C3.24051 2.14678 2.8125 2.73677 2.8125 3.35194C2.8125 3.96712 3.24051 4.55711 4.00238 4.9921C4.76424 5.4271 5.79756 5.67148 6.875 5.67148C7.95244 5.67148 8.98576 5.4271 9.74762 4.9921C10.5095 4.55711 10.9375 3.96712 10.9375 3.35194ZM17.435 4.37254C17.1368 4.3467 16.8352 4.33642 16.5338 4.34185C16.4338 4.34471 16.3213 4.34899 16.1925 4.35613C13.2138 4.53312 11.005 5.80922 9.5325 7.06962L9.45375 7.13671C9.08275 7.45439 8.58014 7.71487 7.99051 7.89502C7.40089 8.07518 6.74249 8.16944 6.07375 8.16944H3.75C3.50136 8.16944 3.2629 8.22584 3.08709 8.32622C2.91127 8.4266 2.8125 8.56275 2.8125 8.70472C2.8125 8.84668 2.91127 8.98283 3.08709 9.08322C3.2629 9.1836 3.50136 9.24 3.75 9.24H6.075C7.05241 9.23998 8.01469 9.1022 8.87646 8.83888C9.73821 8.57555 10.4728 8.19484 11.015 7.73051L11.0925 7.66343C11.4257 7.37585 11.792 7.10119 12.1888 6.84124L14.5438 8.52201C15.0788 8.90313 15.4362 9.16006 15.6775 9.37132C15.9125 9.57544 15.9788 9.68891 15.9963 9.77527C16.0262 9.91801 15.9937 10.0629 15.905 10.1971C15.85 10.2784 15.7362 10.3798 15.4225 10.5446C15.0975 10.7159 14.64 10.9143 13.9587 11.2084L13.8387 11.2605C12.9388 11.6502 12.3137 11.92 11.8825 12.2797C11.6362 12.4845 11.4425 12.7079 11.3038 12.9434C11.0625 13.3573 11.0625 13.8041 11.0625 14.4493V15.8417C11.0625 15.9837 11.1613 16.1199 11.3371 16.2202C11.5129 16.3206 11.7514 16.377 12 16.377C12.2486 16.377 12.4871 16.3206 12.6629 16.2202C12.8387 16.1199 12.9375 15.9837 12.9375 15.8417V14.5357C12.9375 13.772 12.95 13.5115 13.0825 13.2831C13.165 13.1419 13.2815 13.0078 13.4288 12.8849C13.6663 12.6865 14.0238 12.5245 15.0912 12.0627L15.1262 12.0477C15.7638 11.7722 16.2925 11.5431 16.6912 11.3333C17.1087 11.1142 17.455 10.8801 17.6562 10.5796C17.8537 10.2842 17.9231 9.96587 17.8587 9.6518C17.7937 9.33206 17.5575 9.05586 17.2463 8.78537C16.95 8.52701 16.5338 8.23011 16.0363 7.87397L13.5563 6.1047C14.4163 5.73143 15.3612 5.48306 16.3863 5.4224C16.4627 5.41778 16.5394 5.41445 16.6163 5.41241C16.8045 5.4099 16.9928 5.41707 17.1788 5.43382C18.51 5.53944 19.8437 5.96196 22.7413 6.9019L24.5363 7.48357C24.7524 7.5538 25.0086 7.57212 25.2484 7.53451C25.4882 7.4969 25.692 7.40644 25.815 7.28302C25.938 7.15961 25.9701 7.01335 25.9042 6.87643C25.8383 6.7395 25.6799 6.62313 25.4638 6.5529L23.6687 5.97124L23.4787 5.90914C20.8288 5.04984 19.1675 4.51028 17.435 4.37397V4.37254ZM18.15 11.8629C17.9591 11.9537 17.8392 12.0842 17.8167 12.2255C17.7942 12.3668 17.8709 12.5075 18.03 12.6165L19.28 13.4737L19.4012 13.5565C20.2038 14.1067 20.7925 14.5114 21.615 14.7312C22.4375 14.951 23.3587 14.951 24.615 14.9503H26.25C26.4986 14.9503 26.7371 14.8939 26.9129 14.7936C27.0887 14.6932 27.1875 14.557 27.1875 14.4151C27.1875 14.2731 27.0887 14.1369 26.9129 14.0366C26.7371 13.9362 26.4986 13.8798 26.25 13.8798H24.8025C23.275 13.8798 22.8075 13.8676 22.4113 13.762C22.0138 13.6557 21.6988 13.458 20.7213 12.7885L19.4712 11.9314C19.3924 11.8773 19.2957 11.8326 19.1866 11.7999C19.0775 11.7672 18.9582 11.7471 18.8355 11.7407C18.7128 11.7344 18.5891 11.7419 18.4715 11.7628C18.3538 11.7838 18.2446 11.8178 18.15 11.8629Z" fill="white"/>
</svg>
