<svg width="30" height="18" viewBox="0 0 30 18" fill="none" xmlns="http://www.w3.org/2000/svg">
<path fill-rule="evenodd" clip-rule="evenodd" d="M6.875 2.26117C7.16227 2.26117 7.44672 2.29347 7.71212 2.35624C7.97752 2.41901 8.21867 2.51101 8.42179 2.62699C8.62492 2.74296 8.78605 2.88065 8.89599 3.03218C9.00592 3.18372 9.0625 3.34613 9.0625 3.51015C9.0625 3.67417 9.00592 3.83658 8.89599 3.98811C8.78605 4.13965 8.62492 4.27733 8.42179 4.39331C8.21867 4.50929 7.97752 4.60129 7.71212 4.66406C7.44672 4.72682 7.16227 4.75913 6.875 4.75913C6.29484 4.75913 5.73844 4.62754 5.32821 4.39331C4.91797 4.15908 4.6875 3.8414 4.6875 3.51015C4.6875 3.1789 4.91797 2.86121 5.32821 2.62699C5.73844 2.39276 6.29484 2.26117 6.875 2.26117ZM10.9375 3.51015C10.9375 2.89497 10.5095 2.30499 9.74762 1.86999C8.98576 1.43499 7.95244 1.19061 6.875 1.19061C5.79756 1.19061 4.76424 1.43499 4.00238 1.86999C3.24051 2.30499 2.8125 2.89497 2.8125 3.51015C2.8125 4.12533 3.24051 4.71531 4.00238 5.15031C4.76424 5.5853 5.79756 5.82968 6.875 5.82968C7.95244 5.82968 8.98576 5.5853 9.74762 5.15031C10.5095 4.71531 10.9375 4.12533 10.9375 3.51015ZM17.435 4.53074C17.1368 4.5049 16.8352 4.49463 16.5338 4.50005C16.4338 4.50291 16.3213 4.50719 16.1925 4.51433C13.2138 4.69133 11.005 5.96743 9.5325 7.22783L9.45375 7.29492C9.08275 7.6126 8.58014 7.87307 7.99051 8.05323C7.40089 8.23338 6.74249 8.32764 6.07375 8.32764H3.75C3.50136 8.32764 3.2629 8.38404 3.08709 8.48442C2.91127 8.58481 2.8125 8.72096 2.8125 8.86292C2.8125 9.00489 2.91127 9.14104 3.08709 9.24142C3.2629 9.3418 3.50136 9.3982 3.75 9.3982H6.075C7.05241 9.39818 8.01469 9.2604 8.87646 8.99708C9.73821 8.73376 10.4728 8.35304 11.015 7.88872L11.0925 7.82163C11.4257 7.53406 11.792 7.2594 12.1888 6.99944L14.5438 8.68021C15.0788 9.06133 15.4362 9.31826 15.6775 9.52952C15.9125 9.73364 15.9788 9.84712 15.9963 9.93348C16.0262 10.0762 15.9937 10.2211 15.905 10.3553C15.85 10.4366 15.7362 10.538 15.4225 10.7028C15.0975 10.8741 14.64 11.0725 13.9587 11.3666L13.8387 11.4187C12.9388 11.8084 12.3137 12.0782 11.8825 12.4379C11.6362 12.6427 11.4425 12.8661 11.3038 13.1016C11.0625 13.5156 11.0625 13.9623 11.0625 14.6075V16C11.0625 16.1419 11.1613 16.2781 11.3371 16.3785C11.5129 16.4788 11.7514 16.5352 12 16.5352C12.2486 16.5352 12.4871 16.4788 12.6629 16.3785C12.8387 16.2781 12.9375 16.1419 12.9375 16V14.6939C12.9375 13.9302 12.95 13.6697 13.0825 13.4413C13.165 13.3001 13.2815 13.166 13.4288 13.0431C13.6663 12.8447 14.0238 12.6827 15.0912 12.2209L15.1262 12.2059C15.7638 11.9304 16.2925 11.7013 16.6912 11.4915C17.1087 11.2724 17.455 11.0383 17.6562 10.7378C17.8537 10.4424 17.9231 10.1241 17.8587 9.81001C17.7937 9.49027 17.5575 9.21406 17.2463 8.94357C16.95 8.68521 16.5338 8.38831 16.0363 8.03217L13.5563 6.2629C14.4163 5.88963 15.3612 5.64127 16.3863 5.5806C16.4627 5.57599 16.5394 5.57266 16.6163 5.57061C16.8045 5.56811 16.9928 5.57527 17.1788 5.59202C18.51 5.69765 19.8437 6.12016 22.7413 7.06011L24.5363 7.64177C24.7524 7.712 25.0086 7.73032 25.2484 7.69271C25.4882 7.6551 25.692 7.56464 25.815 7.44122C25.938 7.31781 25.9701 7.17155 25.9042 7.03463C25.8383 6.89771 25.6799 6.78133 25.4638 6.71111L23.6687 6.12944L23.4787 6.06735C20.8288 5.20805 19.1675 4.66849 17.435 4.53217V4.53074ZM18.15 12.0211C17.9591 12.1119 17.8392 12.2424 17.8167 12.3837C17.7942 12.525 17.8709 12.6657 18.03 12.7747L19.28 13.6319L19.4012 13.7147C20.2038 14.2649 20.7925 14.6696 21.615 14.8894C22.4375 15.1093 23.3587 15.1093 24.615 15.1085H26.25C26.4986 15.1085 26.7371 15.0521 26.9129 14.9518C27.0887 14.8514 27.1875 14.7152 27.1875 14.5733C27.1875 14.4313 27.0887 14.2951 26.9129 14.1948C26.7371 14.0944 26.4986 14.038 26.25 14.038H24.8025C23.275 14.038 22.8075 14.0258 22.4113 13.9202C22.0138 13.8139 21.6988 13.6162 20.7213 12.9467L19.4712 12.0896C19.3924 12.0355 19.2957 11.9908 19.1866 11.9581C19.0775 11.9254 18.9582 11.9053 18.8355 11.8989C18.7128 11.8926 18.5891 11.9001 18.4715 11.921C18.3538 11.942 18.2446 11.976 18.15 12.0211Z" fill="white"/>
</svg>
