<svg width="30" height="18" viewBox="0 0 30 18" fill="none" xmlns="http://www.w3.org/2000/svg">
<g clip-path="url(#clip0_54_129)">
<path fill-rule="evenodd" clip-rule="evenodd" d="M23.125 2.06543C22.8377 2.06543 22.5533 2.09773 22.2879 2.1605C22.0225 2.22327 21.7813 2.31527 21.5782 2.43125C21.3751 2.54722 21.2139 2.68491 21.104 2.83644C20.9941 2.98798 20.9375 3.15039 20.9375 3.31441C20.9375 3.47843 20.9941 3.64084 21.104 3.79237C21.2139 3.94391 21.3751 4.08159 21.5782 4.19757C21.7813 4.31355 22.0225 4.40555 22.2879 4.46832C22.5533 4.53108 22.8377 4.56339 23.125 4.56339C23.7052 4.56339 24.2616 4.4318 24.6718 4.19757C25.082 3.96334 25.3125 3.64566 25.3125 3.31441C25.3125 2.98316 25.082 2.66547 24.6718 2.43125C24.2616 2.19702 23.7052 2.06543 23.125 2.06543ZM19.0625 3.31441C19.0625 2.69923 19.4905 2.10925 20.2524 1.67425C21.0142 1.23925 22.0476 0.994873 23.125 0.994873C24.2024 0.994873 25.2358 1.23925 25.9976 1.67425C26.7595 2.10925 27.1875 2.69923 27.1875 3.31441C27.1875 3.92959 26.7595 4.51957 25.9976 4.95457C25.2358 5.38956 24.2024 5.63394 23.125 5.63394C22.0476 5.63394 21.0142 5.38956 20.2524 4.95457C19.4905 4.51957 19.0625 3.92959 19.0625 3.31441ZM12.565 4.335C12.8632 4.30916 13.1648 4.29889 13.4662 4.30431C13.5662 4.30717 13.6787 4.31145 13.8075 4.31859C16.7862 4.49559 18.995 5.77169 20.4675 7.03209L20.5462 7.09918C20.9172 7.41686 21.4199 7.67733 22.0095 7.85749C22.5991 8.03764 23.2575 8.1319 23.9263 8.1319H26.25C26.4986 8.1319 26.7371 8.1883 26.9129 8.28868C27.0887 8.38907 27.1875 8.52522 27.1875 8.66718C27.1875 8.80915 27.0887 8.9453 26.9129 9.04568C26.7371 9.14606 26.4986 9.20246 26.25 9.20246H23.925C22.9476 9.20244 21.9853 9.06466 21.1235 8.80134C20.2618 8.53802 19.5272 8.1573 18.985 7.69298L18.9075 7.62589C18.5743 7.33832 18.208 7.06366 17.8112 6.8037L15.4562 8.48447C14.9212 8.86559 14.5638 9.12252 14.3225 9.33378C14.0875 9.5379 14.0212 9.65138 14.0037 9.73774C13.9738 9.88048 14.0063 10.0254 14.095 10.1595C14.15 10.2409 14.2638 10.3422 14.5775 10.5071C14.9025 10.6784 15.36 10.8768 16.0413 11.1709L16.1613 11.223C17.0612 11.6126 17.6863 11.8824 18.1175 12.2421C18.3638 12.447 18.5575 12.6703 18.6962 12.9059C18.9375 13.3198 18.9375 13.7666 18.9375 14.4118V15.8042C18.9375 15.9462 18.8387 16.0823 18.6629 16.1827C18.4871 16.2831 18.2486 16.3395 18 16.3395C17.7514 16.3395 17.5129 16.2831 17.3371 16.1827C17.1613 16.0823 17.0625 15.9462 17.0625 15.8042V14.4981C17.0625 13.7345 17.05 13.474 16.9175 13.2456C16.835 13.1043 16.7185 12.9703 16.5712 12.8473C16.3337 12.6489 15.9762 12.4869 14.9088 12.0252L14.8738 12.0102C14.2362 11.7347 13.7075 11.5056 13.3088 11.2957C12.8913 11.0766 12.545 10.8425 12.3438 10.5421C12.1463 10.2466 12.0769 9.92833 12.1413 9.61427C12.2063 9.29453 12.4425 9.01832 12.7537 8.74783C13.05 8.48947 13.4662 8.19257 13.9637 7.83643L16.4437 6.06716C15.5837 5.69389 14.6388 5.44553 13.6137 5.38486C13.5373 5.38025 13.4606 5.37692 13.3837 5.37487C13.1955 5.37237 13.0072 5.37953 12.8212 5.39628C11.49 5.50191 10.1563 5.92442 7.25875 6.86437L5.46375 7.44603C5.2476 7.51626 4.99144 7.53458 4.75163 7.49697C4.51182 7.45936 4.30799 7.3689 4.185 7.24548C4.06201 7.12207 4.02991 6.97581 4.09579 6.83889C4.16166 6.70197 4.3201 6.58559 4.53625 6.51537L6.33125 5.9337L6.52125 5.87161C9.17125 5.01231 10.8325 4.47275 12.565 4.33643V4.335ZM11.85 11.8253C12.0409 11.9162 12.1608 12.0466 12.1833 12.188C12.2058 12.3293 12.1291 12.4699 11.97 12.579L10.72 13.4361L10.5988 13.5189C9.79625 14.0692 9.2075 14.4739 8.385 14.6937C7.5625 14.9135 6.64125 14.9135 5.385 14.9128H3.75C3.50136 14.9128 3.2629 14.8564 3.08709 14.756C2.91127 14.6556 2.8125 14.5195 2.8125 14.3775C2.8125 14.2356 2.91127 14.0994 3.08709 13.999C3.2629 13.8986 3.50136 13.8422 3.75 13.8422H5.1975C6.725 13.8422 7.1925 13.8301 7.58875 13.7245C7.98625 13.6181 8.30125 13.4204 9.27875 12.751L10.5288 11.8938C10.6076 11.8398 10.7043 11.7951 10.8134 11.7624C10.9225 11.7297 11.0418 11.7096 11.1645 11.7032C11.2872 11.6968 11.4109 11.7043 11.5285 11.7253C11.6462 11.7463 11.7554 11.7802 11.85 11.8253Z" fill="white"/>
</g>
<defs>
<clipPath id="clip0_54_129">
<rect width="30" height="17.1289" fill="white" transform="translate(0 0.102722)"/>
</clipPath>
</defs>
</svg>
