<svg width="30" height="18" viewBox="0 0 30 18" fill="none" xmlns="http://www.w3.org/2000/svg">
<path fill-rule="evenodd" clip-rule="evenodd" d="M23.125 2.18451C22.8377 2.18451 22.5533 2.21681 22.2879 2.27958C22.0225 2.34235 21.7813 2.43435 21.5782 2.55033C21.3751 2.6663 21.2139 2.80399 21.104 2.95552C20.9941 3.10706 20.9375 3.26947 20.9375 3.43349C20.9375 3.59751 20.9941 3.75992 21.104 3.91145C21.2139 4.06298 21.3751 4.20067 21.5782 4.31665C21.7813 4.43263 22.0225 4.52463 22.2879 4.5874C22.5533 4.65016 22.8377 4.68247 23.125 4.68247C23.7052 4.68247 24.2616 4.55088 24.6718 4.31665C25.082 4.08242 25.3125 3.76474 25.3125 3.43349C25.3125 3.10224 25.082 2.78455 24.6718 2.55033C24.2616 2.3161 23.7052 2.18451 23.125 2.18451ZM19.0625 3.43349C19.0625 2.81831 19.4905 2.22833 20.2524 1.79333C21.0142 1.35833 22.0476 1.11395 23.125 1.11395C24.2024 1.11395 25.2358 1.35833 25.9976 1.79333C26.7595 2.22833 27.1875 2.81831 27.1875 3.43349C27.1875 4.04867 26.7595 4.63865 25.9976 5.07365C25.2358 5.50864 24.2024 5.75302 23.125 5.75302C22.0476 5.75302 21.0142 5.50864 20.2524 5.07365C19.4905 4.63865 19.0625 4.04867 19.0625 3.43349ZM12.565 4.45408C12.8632 4.42824 13.1648 4.41797 13.4662 4.42339C13.5662 4.42625 13.6787 4.43053 13.8075 4.43767C16.7862 4.61467 18.995 5.89077 20.4675 7.15117L20.5462 7.21826C20.9172 7.53594 21.4199 7.79641 22.0095 7.97657C22.5991 8.15672 23.2575 8.25098 23.9263 8.25098H26.25C26.4986 8.25098 26.7371 8.30738 26.9129 8.40776C27.0887 8.50815 27.1875 8.6443 27.1875 8.78626C27.1875 8.92823 27.0887 9.06437 26.9129 9.16476C26.7371 9.26514 26.4986 9.32154 26.25 9.32154H23.925C22.9476 9.32152 21.9853 9.18374 21.1235 8.92042C20.2618 8.6571 19.5272 8.27638 18.985 7.81206L18.9075 7.74497C18.5743 7.4574 18.208 7.18274 17.8112 6.92278L15.4562 8.60355C14.9212 8.98467 14.5638 9.2416 14.3225 9.45286C14.0875 9.65698 14.0212 9.77046 14.0037 9.85682C13.9738 9.99956 14.0063 10.1444 14.095 10.2786C14.15 10.36 14.2638 10.4613 14.5775 10.6262C14.9025 10.7975 15.36 10.9959 16.0413 11.2899L16.1613 11.342C17.0612 11.7317 17.6863 12.0015 18.1175 12.3612C18.3638 12.566 18.5575 12.7894 18.6962 13.0249C18.9375 13.4389 18.9375 13.8857 18.9375 14.5309V15.9233C18.9375 16.0653 18.8387 16.2014 18.6629 16.3018C18.4871 16.4022 18.2486 16.4586 18 16.4586C17.7514 16.4586 17.5129 16.4022 17.3371 16.3018C17.1613 16.2014 17.0625 16.0653 17.0625 15.9233V14.6172C17.0625 13.8536 17.05 13.5931 16.9175 13.3647C16.835 13.2234 16.7185 13.0894 16.5712 12.9664C16.3337 12.768 15.9762 12.606 14.9088 12.1442L14.8738 12.1292C14.2362 11.8538 13.7075 11.6247 13.3088 11.4148C12.8913 11.1957 12.545 10.9616 12.3438 10.6612C12.1463 10.3657 12.0769 10.0474 12.1413 9.73335C12.2063 9.41361 12.4425 9.1374 12.7537 8.86691C13.05 8.60855 13.4662 8.31165 13.9637 7.95551L16.4437 6.18624C15.5837 5.81297 14.6388 5.56461 13.6137 5.50394C13.5373 5.49933 13.4606 5.496 13.3837 5.49395C13.1955 5.49145 13.0072 5.49861 12.8212 5.51536C11.49 5.62099 10.1563 6.0435 7.25875 6.98345L5.46375 7.56511C5.2476 7.63534 4.99144 7.65366 4.75163 7.61605C4.51182 7.57844 4.30799 7.48798 4.185 7.36456C4.06201 7.24115 4.02991 7.09489 4.09579 6.95797C4.16166 6.82105 4.3201 6.70467 4.53625 6.63445L6.33125 6.05278L6.52125 5.99069C9.17125 5.13139 10.8325 4.59183 12.565 4.45551V4.45408ZM11.85 11.9444C12.0409 12.0353 12.1608 12.1657 12.1833 12.307C12.2058 12.4484 12.1291 12.589 11.97 12.6981L10.72 13.5552L10.5988 13.638C9.79625 14.1883 9.2075 14.5929 8.385 14.8128C7.5625 15.0326 6.64125 15.0326 5.385 15.0319H3.75C3.50136 15.0319 3.2629 14.9755 3.08709 14.8751C2.91127 14.7747 2.8125 14.6386 2.8125 14.4966C2.8125 14.3546 2.91127 14.2185 3.08709 14.1181C3.2629 14.0177 3.50136 13.9613 3.75 13.9613H5.1975C6.725 13.9613 7.1925 13.9492 7.58875 13.8436C7.98625 13.7372 8.30125 13.5395 9.27875 12.8701L10.5288 12.0129C10.6076 11.9588 10.7043 11.9142 10.8134 11.8815C10.9225 11.8487 11.0418 11.8286 11.1645 11.8223C11.2872 11.8159 11.4109 11.8234 11.5285 11.8444C11.6462 11.8653 11.7554 11.8993 11.85 11.9444Z" fill="white"/>
</svg>
