<svg width="60" height="60" viewBox="0 0 60 60" fill="none" xmlns="http://www.w3.org/2000/svg">
<path d="M43.948 15.3345H31.7039C31.3096 15.3345 30.9902 15.6539 30.9902 16.0482C30.9902 16.4424 31.3097 16.7618 31.7039 16.7618H43.9479C44.3421 16.7618 44.6616 16.4424 44.6616 16.0482C44.6616 15.6539 44.3421 15.3345 43.948 15.3345Z" fill="#00AD98"/>
<path d="M37.1562 18.3757H31.7036C31.3094 18.3757 30.99 18.6952 30.99 19.0894C30.99 19.4836 31.3095 19.803 31.7036 19.803H37.1562C37.5504 19.803 37.8698 19.4836 37.8698 19.0894C37.8698 18.6951 37.5503 18.3757 37.1562 18.3757Z" fill="#00AD98"/>
<path d="M56.9187 18.5002C56.5246 18.5002 56.2051 18.8196 56.2051 19.2138C56.2051 19.608 56.5245 19.9275 56.9187 19.9275C57.6208 19.9275 58.1919 20.4986 58.1919 21.2007V41.4772H52.9837V19.9274H54.1731C54.5672 19.9274 54.8867 19.608 54.8867 19.2137C54.8867 18.8196 54.5673 18.5001 54.1731 18.5001H52.9837V13.6442C52.9837 12.4619 52.0219 11.5 50.8396 11.5H20.97C19.7877 11.5 18.8258 12.4619 18.8258 13.6442V18.5002H15.0811C13.5921 18.5002 12.3806 19.7117 12.3806 21.2007V42.1908V48.7668C12.3806 50.2558 13.5921 51.4672 15.0811 51.4672H19.4759C19.87 51.4672 20.1895 51.1478 20.1895 50.7536C20.1895 50.3595 19.8701 50.04 19.4759 50.04H15.0811C14.379 50.04 13.8079 49.4688 13.8079 48.7668V42.9044H19.5394H52.27H58.1918V48.7668C58.1918 49.4688 57.6207 50.04 56.9186 50.04H41.1352H30.8646H22.8379C22.4437 50.04 22.1242 50.3594 22.1242 50.7536C22.1242 51.1477 22.4436 51.4672 22.8379 51.4672H30.1509V55.2487C28.2289 55.283 26.6754 56.8563 26.6754 58.7864C26.6754 59.1805 26.9948 59.5 27.3891 59.5H44.6107C45.0049 59.5 45.3244 59.1806 45.3244 58.7864C45.3244 56.8563 43.7709 55.2829 41.8489 55.2487V51.4672H56.9187C58.4077 51.4672 59.6192 50.2558 59.6192 48.7668V42.1908V21.2007C59.6191 19.7117 58.4076 18.5002 56.9187 18.5002ZM18.8258 41.4772H13.8079V21.2007C13.8079 20.4986 14.379 19.9275 15.0811 19.9275H18.8258V41.4772ZM51.5565 21.9257H27.2464C26.8522 21.9257 26.5327 22.2451 26.5327 22.6393C26.5327 23.0335 26.8521 23.3529 27.2464 23.3529H51.5565V41.4772H20.253V23.3529H23.5356C23.9297 23.3529 24.2492 23.0335 24.2492 22.6393C24.2492 22.2451 23.9298 21.9257 23.5356 21.9257H20.253V13.6442C20.253 13.2488 20.5746 12.9273 20.9699 12.9273H50.8396C51.2349 12.9273 51.5565 13.2488 51.5565 13.6442V21.9257ZM31.5781 51.4671H40.4216V55.247H31.5781V51.4671ZM43.7731 58.0728H28.2267C28.52 57.2582 29.3004 56.6743 30.2148 56.6743H30.8646H41.1352H41.785C42.6994 56.6743 43.4798 57.2582 43.7731 58.0728Z" fill="#00AD98"/>
<path d="M36.3827 44.3155C35.1936 44.3155 34.2261 45.283 34.2261 46.4722C34.2261 47.6613 35.1936 48.6288 36.3827 48.6288C37.572 48.6288 38.5394 47.6614 38.5394 46.4722C38.5394 45.283 37.5719 44.3155 36.3827 44.3155ZM36.3827 47.2016C35.9806 47.2017 35.6533 46.8744 35.6533 46.4722C35.6533 46.0699 35.9806 45.7427 36.3827 45.7427C36.785 45.7427 37.1122 46.07 37.1122 46.4722C37.1122 46.8744 36.7849 47.2016 36.3827 47.2016Z" fill="#00AD98"/>
<path d="M28.0654 18.881L25.7166 14.8127C25.5891 14.592 25.3536 14.4559 25.0986 14.4559C24.8436 14.4559 24.6081 14.592 24.4806 14.8127L22.1318 18.881C22.0043 19.1018 22.0043 19.3739 22.1318 19.5947C22.2593 19.8154 22.4948 19.9515 22.7498 19.9515H27.4475C27.7024 19.9515 27.938 19.8154 28.0654 19.5947C28.1929 19.3739 28.1929 19.1018 28.0654 18.881ZM23.9857 18.5243L25.0986 16.5968L26.2115 18.5243H23.9857Z" fill="#00AD98"/>
<path d="M49.4538 25.9842H39.1189C38.7248 25.9842 38.4053 26.3036 38.4053 26.6978C38.4053 27.0919 38.7247 27.4114 39.1189 27.4114H49.4538C49.8479 27.4114 50.1674 27.092 50.1674 26.6978C50.1674 26.3036 49.8479 25.9842 49.4538 25.9842Z" fill="#00AD98"/>
<path d="M49.4538 29.1227H39.1189C38.7248 29.1227 38.4053 29.4421 38.4053 29.8363C38.4053 30.2305 38.7247 30.5499 39.1189 30.5499H49.4538C49.8479 30.5499 50.1674 30.2305 50.1674 29.8363C50.1674 29.4421 49.8479 29.1227 49.4538 29.1227Z" fill="#00AD98"/>
<path d="M49.4538 32.2611H39.1189C38.7248 32.2611 38.4053 32.5805 38.4053 32.9747C38.4053 33.3689 38.7247 33.6884 39.1189 33.6884H49.4538C49.8479 33.6884 50.1674 33.369 50.1674 32.9747C50.1674 32.5805 49.8479 32.2611 49.4538 32.2611Z" fill="#00AD98"/>
<path d="M49.4538 35.3996H39.1189C38.7248 35.3996 38.4053 35.719 38.4053 36.1132C38.4053 36.5073 38.7247 36.8268 39.1189 36.8268H49.4538C49.8479 36.8268 50.1674 36.5074 50.1674 36.1132C50.1674 35.719 49.8479 35.3996 49.4538 35.3996Z" fill="#00AD98"/>
<path d="M43.948 38.5381H39.1189C38.7248 38.5381 38.4053 38.8575 38.4053 39.2517C38.4053 39.6458 38.7247 39.9653 39.1189 39.9653H43.948C44.3421 39.9653 44.6616 39.6459 44.6616 39.2517C44.6616 38.8575 44.3422 38.5381 43.948 38.5381Z" fill="#00AD98"/>
<path d="M35.9049 25.383H22.7498C22.3556 25.383 22.0361 25.7024 22.0361 26.0966V34.5108V39.2517C22.0361 39.6458 22.3555 39.9653 22.7498 39.9653H35.9049C36.299 39.9653 36.6185 39.6459 36.6185 39.2517V35.2199V26.0966C36.6185 25.7024 36.299 25.383 35.9049 25.383ZM23.4635 26.8102H35.1912V34.2718C35.1114 34.2581 35.0315 34.2461 34.9517 34.2372C33.7079 34.0978 32.9928 34.5955 32.4179 34.9953C31.9864 35.2953 31.6137 35.5544 30.9895 35.605C29.9799 35.6879 29.3325 35.1511 28.5125 34.4727C27.5996 33.7177 26.5643 32.8629 24.9186 32.962C24.4251 32.992 23.9387 33.1055 23.4635 33.3V26.8102ZM35.1913 38.5381H23.4634V34.8943C23.9696 34.5886 24.4868 34.4182 25.0051 34.3867C26.0891 34.3206 26.7907 34.9008 27.6028 35.5725C28.5003 36.3148 29.5168 37.1555 31.1049 37.0276C32.1126 36.9458 32.7336 36.514 33.2327 36.1672C33.7446 35.8113 34.0832 35.5764 34.7931 35.6556C34.925 35.6704 35.0581 35.6951 35.1913 35.7297V38.5381Z" fill="#00AD98"/>
<path d="M31.21 28.4042C30.006 28.4042 29.0266 29.3836 29.0266 30.5876C29.0266 31.7914 30.006 32.7709 31.21 32.7709C32.4139 32.7709 33.3933 31.7915 33.3933 30.5876C33.3933 29.3836 32.4139 28.4042 31.21 28.4042ZM31.21 31.3438C30.793 31.3438 30.4538 31.0045 30.4538 30.5876C30.4538 30.1706 30.793 29.8314 31.21 29.8314C31.6269 29.8314 31.9661 30.1707 31.9661 30.5876C31.9661 31.0045 31.6269 31.3438 31.21 31.3438Z" fill="#00AD98"/>
<circle cx="20" cy="20.5" r="20" fill="#00AD98" fill-opacity="0.2"/>
</svg>
